{
 "cells": [
  {
   "cell_type": "code",
   "execution_count": 3,
   "id": "99e66e60",
   "metadata": {},
   "outputs": [
    {
     "name": "stdout",
     "output_type": "stream",
     "text": [
      "已将第1组的4张webp图片竖直拼接为: /home/hongyuan/obj_motion/Trans4Motion.github.io/static/webps/all_0.webp\n",
      "已将第2组的4张webp图片竖直拼接为: /home/hongyuan/obj_motion/Trans4Motion.github.io/static/webps/all_1.webp\n"
     ]
    }
   ],
   "source": [
    "import os\n",
    "from PIL import Image\n",
    "\n",
    "# 设定webp图片所在目录\n",
    "webp_dir = '/home/hongyuan/obj_motion/Trans4Motion.github.io/static/webps'\n",
    "\n",
    "# 获取所有webp文件名，并按文件名排序\n",
    "webp_files = [f for f in os.listdir(webp_dir) if f.endswith('.webp')]\n",
    "webp_files.sort()  # 按文件名升序排列\n",
    "\n",
    "# 读取所有webp图片\n",
    "images = [Image.open(os.path.join(webp_dir, f)) for f in webp_files]\n",
    "\n",
    "# 中文注释：每4张图片拼接为一张竖直拼接的大图\n",
    "group_size = 4  # 每组拼接4张\n",
    "merged_images = []  # 存储每组拼接后的图片\n",
    "\n",
    "for i in range(0, len(images), group_size):\n",
    "    group = images[i:i+group_size]\n",
    "    # 获取本组图片的最大宽度和总高度\n",
    "    widths, heights = zip(*(img.size for img in group))\n",
    "    total_width = max(widths)\n",
    "    total_height = sum(heights)\n",
    "    # 统一图片模式，避免webp编码错误\n",
    "    if group:\n",
    "        mode = group[0].mode\n",
    "        if mode not in ['RGB', 'RGBA']:\n",
    "            mode = 'RGB'\n",
    "            group = [img.convert('RGB') for img in group]\n",
    "    else:\n",
    "        mode = 'RGB'\n",
    "    # 创建空白图片用于拼接\n",
    "    merged_img = Image.new(mode, (total_width, total_height))  # 中文注释：创建合并后的空白图片\n",
    "    y_offset = 0\n",
    "    for img in group:\n",
    "        # 中文注释：如果单张图片模式与合并图片不一致，进行转换\n",
    "        if img.mode != mode:\n",
    "            img = img.convert(mode)\n",
    "        merged_img.paste(img, (0, y_offset))\n",
    "        y_offset += img.size[1]\n",
    "    merged_images.append(merged_img)\n",
    "\n",
    "# 保存每组拼接后的图片为webp格式，文件名为all_0.webp, all_1.webp, ...\n",
    "for idx, merged_img in enumerate(merged_images):\n",
    "    output_path = os.path.join(webp_dir, f'all_{idx}.webp')\n",
    "    try:\n",
    "        merged_img.save(output_path, 'WEBP')  # 中文注释：保存为webp格式\n",
    "        print(f\"已将第{idx+1}组的{group_size}张webp图片竖直拼接为: {output_path}\")  # 中文注释：输出合并结果\n",
    "    except Exception as e:\n",
    "        print(f\"保存webp图片时出错: {e}\")  # 中文注释：捕获并输出保存错误\n"
   ]
  },
  {
   "cell_type": "code",
   "execution_count": null,
   "id": "ddc63474",
   "metadata": {},
   "outputs": [
    {
     "ename": "NameError",
     "evalue": "name 'os' is not defined",
     "output_type": "error",
     "traceback": [
      "\u001b[31m---------------------------------------------------------------------------\u001b[39m",
      "\u001b[31mNameError\u001b[39m                                 Traceback (most recent call last)",
      "\u001b[36mCell\u001b[39m\u001b[36m \u001b[39m\u001b[32mIn[1]\u001b[39m\u001b[32m, line 6\u001b[39m\n\u001b[32m      4\u001b[39m webp_dir = \u001b[33m'\u001b[39m\u001b[33m/home/hongyuan/obj_motion/Trans4Motion.github.io/static/webps\u001b[39m\u001b[33m'\u001b[39m\n\u001b[32m      5\u001b[39m \u001b[38;5;66;03m# 中文注释：将webp目录下前4个webp图片拼接为一张，后4个拼接为一张，拼接后分别生成动态webp（动图）和4K分辨率的mp4视频\u001b[39;00m\n\u001b[32m----> \u001b[39m\u001b[32m6\u001b[39m webp_files = [f \u001b[38;5;28;01mfor\u001b[39;00m f \u001b[38;5;129;01min\u001b[39;00m \u001b[43mos\u001b[49m.listdir(webp_dir) \u001b[38;5;28;01mif\u001b[39;00m f.endswith(\u001b[33m'\u001b[39m\u001b[33m.webp\u001b[39m\u001b[33m'\u001b[39m)]\n\u001b[32m      7\u001b[39m webp_files.sort()  \u001b[38;5;66;03m# 中文注释：按文件名升序排列\u001b[39;00m\n\u001b[32m      9\u001b[39m \u001b[38;5;66;03m# 中文注释：分组，每组4张\u001b[39;00m\n",
      "\u001b[31mNameError\u001b[39m: name 'os' is not defined"
     ]
    }
   ],
   "source": [
    "import cv2  # 中文注释：导入OpenCV库用于视频写入\n",
    "import numpy as np\n",
    "importos\n",
    "webp_dir = '/home/hongyuan/obj_motion/Trans4Motion.github.io/static/webps'\n",
    "# 中文注释：将webp目录下前4个webp图片拼接为一张，后4个拼接为一张，拼接后分别生成动态webp（动图）和4K分辨率的mp4视频\n",
    "webp_files = [f for f in os.listdir(webp_dir) if f.endswith('.webp')]\n",
    "webp_files.sort()  # 中文注释：按文件名升序排列\n",
    "\n",
    "# 中文注释：分组，每组4张\n",
    "group_size = 4\n",
    "groups = [webp_files[:4], webp_files[4:8]]\n",
    "\n",
    "output_names = ['all_0.webp', 'all_1.webp']\n",
    "video_names = ['all_0.mp4', 'all_1.mp4']\n",
    "animated_names = ['all_0_animated.webp', 'all_1_animated.webp']\n",
    "\n",
    "for idx, group in enumerate(groups):\n",
    "    # 中文注释：读取本组图片\n",
    "    imgs = [Image.open(os.path.join(webp_dir, f)) for f in group]\n",
    "    # 中文注释：统一图片模式\n",
    "    mode = imgs[0].mode\n",
    "    if mode not in ['RGB', 'RGBA']:\n",
    "        imgs = [img.convert('RGB') for img in imgs]\n",
    "        mode = 'RGB'\n",
    "    # 中文注释：竖直拼接\n",
    "    widths, heights = zip(*(img.size for img in imgs))\n",
    "    total_width = max(widths)\n",
    "    total_height = sum(heights)\n",
    "    merged_img = Image.new(mode, (total_width, total_height))\n",
    "    y_offset = 0\n",
    "    for img in imgs:\n",
    "        if img.mode != mode:\n",
    "            img = img.convert(mode)\n",
    "        merged_img.paste(img, (0, y_offset))\n",
    "        y_offset += img.size[1]\n",
    "    # 中文注释：保存拼接后的webp图片\n",
    "    merged_path = os.path.join(webp_dir, output_names[idx])\n",
    "    merged_img.save(merged_path, 'WEBP')\n",
    "    print(f\"已将第{idx+1}组的4张webp图片竖直拼接为: {merged_path}\")\n",
    "\n",
    "    # ========== 新增：生成动态webp（动图） ==========\n",
    "    # 中文注释：将本组4张图片竖直拼接后，依次作为帧生成动态webp\n",
    "    frames = []\n",
    "    for i in range(len(imgs)):\n",
    "        # 竖直拼接前i+1张图片，剩下的用白色填充\n",
    "        temp_img = Image.new(mode, (total_width, total_height), color=(255,255,255) if mode=='RGB' else (255,255,255,0))\n",
    "        y_offset = 0\n",
    "        for j in range(i+1):\n",
    "            img = imgs[j]\n",
    "            if img.mode != mode:\n",
    "                img = img.convert(mode)\n",
    "            temp_img.paste(img, (0, y_offset))\n",
    "            y_offset += img.size[1]\n",
    "        frames.append(temp_img)\n",
    "    # 中文注释：最后一帧为完整拼接\n",
    "    frames.append(merged_img)\n",
    "    # 中文注释：保存为动态webp，帧率10fps，循环播放\n",
    "    animated_path = os.path.join(webp_dir, animated_names[idx])\n",
    "    frames[0].save(animated_path, save_all=True, append_images=frames[1:], duration=200, loop=0, format='WEBP')\n",
    "    print(f\"已生成动态webp动图: {animated_path}\")\n",
    "\n",
    "    # ========== 生成4K分辨率mp4视频 ==========\n",
    "    # 中文注释：将每一帧转换为OpenCV格式，缩放到4K分辨率\n",
    "    max_width, max_height = 3840, 2160  # 4K分辨率\n",
    "    cv_frames = []\n",
    "    for frame in frames:\n",
    "        # PIL转OpenCV格式\n",
    "        frame_cv = np.array(frame)\n",
    "        if frame_cv.shape[-1] == 4:\n",
    "            frame_cv = cv2.cvtColor(frame_cv, cv2.COLOR_RGBA2BGR)\n",
    "        else:\n",
    "            frame_cv = cv2.cvtColor(frame_cv, cv2.COLOR_RGB2BGR)\n",
    "        h, w = frame_cv.shape[:2]\n",
    "        scale = min(max_width / w, max_height / h, 1.0)\n",
    "        new_w, new_h = int(w * scale), int(h * scale)\n",
    "        if scale < 1.0:\n",
    "            frame_cv = cv2.resize(frame_cv, (new_w, new_h), interpolation=cv2.INTER_AREA)\n",
    "        cv_frames.append(frame_cv)\n",
    "    # 中文注释：写入mp4视频，帧率10fps，循环一次\n",
    "    video_path = os.path.join(webp_dir, video_names[idx])\n",
    "    fourcc = cv2.VideoWriter_fourcc(*'mp4v')\n",
    "    fps = 2\n",
    "    out = cv2.VideoWriter(video_path, fourcc, fps, (cv_frames[0].shape[1], cv_frames[0].shape[0]))\n",
    "    for frame in cv_frames:\n",
    "        out.write(frame)\n",
    "    out.release()\n",
    "    print(f\"已将图片 {merged_path} 合成为动态4K mp4视频: {video_path}\")\n"
   ]
  },
  {
   "cell_type": "code",
   "execution_count": 3,
   "id": "c06919e5",
   "metadata": {},
   "outputs": [
    {
     "name": "stdout",
     "output_type": "stream",
     "text": [
      "生成视频: /home/hongyuan/obj_motion/Trans4Motion.github.io/static/videos/video_1.mp4\n",
      "生成视频: /home/hongyuan/obj_motion/Trans4Motion.github.io/static/videos/video_2.mp4\n"
     ]
    },
    {
     "name": "stderr",
     "output_type": "stream",
     "text": [
      "ffmpeg version 4.2.7-0ubuntu0.1 Copyright (c) 2000-2022 the FFmpeg developers\n",
      "  built with gcc 9 (Ubuntu 9.4.0-1ubuntu1~20.04.1)\n",
      "  configuration: --prefix=/usr --extra-version=0ubuntu0.1 --toolchain=hardened --libdir=/usr/lib/x86_64-linux-gnu --incdir=/usr/include/x86_64-linux-gnu --arch=amd64 --enable-gpl --disable-stripping --enable-avresample --disable-filter=resample --enable-avisynth --enable-gnutls --enable-ladspa --enable-libaom --enable-libass --enable-libbluray --enable-libbs2b --enable-libcaca --enable-libcdio --enable-libcodec2 --enable-libflite --enable-libfontconfig --enable-libfreetype --enable-libfribidi --enable-libgme --enable-libgsm --enable-libjack --enable-libmp3lame --enable-libmysofa --enable-libopenjpeg --enable-libopenmpt --enable-libopus --enable-libpulse --enable-librsvg --enable-librubberband --enable-libshine --enable-libsnappy --enable-libsoxr --enable-libspeex --enable-libssh --enable-libtheora --enable-libtwolame --enable-libvidstab --enable-libvorbis --enable-libvpx --enable-libwavpack --enable-libwebp --enable-libx265 --enable-libxml2 --enable-libxvid --enable-libzmq --enable-libzvbi --enable-lv2 --enable-omx --enable-openal --enable-opencl --enable-opengl --enable-sdl2 --enable-libdc1394 --enable-libdrm --enable-libiec61883 --enable-nvenc --enable-chromaprint --enable-frei0r --enable-libx264 --enable-shared\n",
      "  libavutil      56. 31.100 / 56. 31.100\n",
      "  libavcodec     58. 54.100 / 58. 54.100\n",
      "  libavformat    58. 29.100 / 58. 29.100\n",
      "  libavdevice    58.  8.100 / 58.  8.100\n",
      "  libavfilter     7. 57.100 /  7. 57.100\n",
      "  libavresample   4.  0.  0 /  4.  0.  0\n",
      "  libswscale      5.  5.100 /  5.  5.100\n",
      "  libswresample   3.  5.100 /  3.  5.100\n",
      "  libpostproc    55.  5.100 / 55.  5.100\n",
      "[webp @ 0x55f01c7928c0] skipping unsupported chunk: ANIM\n",
      "[webp @ 0x55f01c7928c0] skipping unsupported chunk: ANMF\n",
      "    Last message repeated 11 times\n",
      "[webp @ 0x55f01c7928c0] image data not found\n",
      "[webp_pipe @ 0x55f01c790dc0] Stream #0: not enough frames to estimate rate; consider increasing probesize\n",
      "[webp_pipe @ 0x55f01c790dc0] decoding for stream 0 failed\n",
      "[webp_pipe @ 0x55f01c790dc0] Could not find codec parameters for stream 0 (Video: webp, none): unspecified size\n",
      "Consider increasing the value for the 'analyzeduration' and 'probesize' options\n",
      "[webp @ 0x55f01c794240] skipping unsupported chunk: ANIM\n",
      "[webp @ 0x55f01c794240] skipping unsupported chunk: ANMF\n",
      "    Last message repeated 11 times\n",
      "[webp @ 0x55f01c794240] image data not found\n",
      "[concat @ 0x55f01c786780] decoding for stream 0 failed\n",
      "[concat @ 0x55f01c786780] Could not find codec parameters for stream 0 (Video: webp, none): unspecified size\n",
      "Consider increasing the value for the 'analyzeduration' and 'probesize' options\n",
      "Input #0, concat, from '/home/hongyuan/obj_motion/Trans4Motion.github.io/static/webps/list_0.txt':\n",
      "  Duration: N/A, start: 0.000000, bitrate: N/A\n",
      "    Stream #0:0: Video: webp, none, 25 tbr, 25 tbn, 25 tbc\n",
      "Stream mapping:\n",
      "  Stream #0:0 -> #0:0 (webp (native) -> h264 (libx264))\n",
      "Press [q] to stop, [?] for help\n",
      "[webp @ 0x55f01c7a3c40] skipping unsupported chunk: ANIM\n",
      "[webp @ 0x55f01c7a3c40] skipping unsupported chunk: ANMF\n",
      "    Last message repeated 11 times\n",
      "[webp @ 0x55f01c7a3c40] image data not found\n",
      "[webp @ 0x55f01c7cbbc0] skipping unsupported chunk: ANIM\n",
      "[webp @ 0x55f01c7cbbc0] skipping unsupported chunk: ANMF\n",
      "    Last message repeated 11 times\n",
      "[webp @ 0x55f01c7cbbc0] image data not found\n",
      "[webp_pipe @ 0x55f01c790dc0] Stream #0: not enough frames to estimate rate; consider increasing probesize\n",
      "[webp_pipe @ 0x55f01c790dc0] decoding for stream 0 failed\n",
      "[webp_pipe @ 0x55f01c790dc0] Could not find codec parameters for stream 0 (Video: webp, none): unspecified size\n",
      "Consider increasing the value for the 'analyzeduration' and 'probesize' options\n",
      "[concat @ 0x55f01c786780] DTS -230584300921369 < 0 out of order\n",
      "DTS -230584300921369, next:40000 st:0 invalid dropping\n",
      "PTS -230584300921369, next:40000 invalid dropping st:0\n",
      "[webp @ 0x55f01c7a4740] skipping unsupported chunk: ANIM\n",
      "[webp @ 0x55f01c7a4740] skipping unsupported chunk: ANMF\n",
      "    Last message repeated 11 times\n",
      "[webp @ 0x55f01c7a4740] image data not found\n",
      "[webp @ 0x55f01c7cca00] skipping unsupported chunk: ANIM\n",
      "[webp @ 0x55f01c7cca00] skipping unsupported chunk: ANMF\n",
      "    Last message repeated 11 times\n",
      "[webp @ 0x55f01c7cca00] image data not found\n",
      "[webp_pipe @ 0x55f01c792300] Stream #0: not enough frames to estimate rate; consider increasing probesize\n",
      "[webp_pipe @ 0x55f01c792300] decoding for stream 0 failed\n",
      "[webp_pipe @ 0x55f01c792300] Could not find codec parameters for stream 0 (Video: webp, none): unspecified size\n",
      "Consider increasing the value for the 'analyzeduration' and 'probesize' options\n",
      "[webp @ 0x55f01c7a9c80] skipping unsupported chunk: ANIM\n",
      "[webp @ 0x55f01c7a9c80] skipping unsupported chunk: ANMF\n",
      "    Last message repeated 11 times\n",
      "[webp @ 0x55f01c7a9c80] image data not found\n",
      "[webp @ 0x55f01c7cc980] skipping unsupported chunk: ANIM\n",
      "[webp @ 0x55f01c7cc980] skipping unsupported chunk: ANMF\n",
      "    Last message repeated 11 times\n",
      "[webp @ 0x55f01c7cc980] image data not found\n",
      "[webp_pipe @ 0x55f01c790dc0] Stream #0: not enough frames to estimate rate; consider increasing probesize\n",
      "[webp_pipe @ 0x55f01c790dc0] decoding for stream 0 failed\n",
      "[webp_pipe @ 0x55f01c790dc0] Could not find codec parameters for stream 0 (Video: webp, none): unspecified size\n",
      "Consider increasing the value for the 'analyzeduration' and 'probesize' options\n",
      "DTS -230584300921369, next:40000 st:0 invalid dropping\n",
      "PTS -230584300921369, next:40000 invalid dropping st:0\n",
      "[webp @ 0x55f01c7abf40] skipping unsupported chunk: ANIM\n",
      "[webp @ 0x55f01c7abf40] skipping unsupported chunk: ANMF\n",
      "    Last message repeated 3 times\n",
      "Error while decoding stream #0:0: Invalid data found when processing input\n",
      "[webp @ 0x55f01c7abf40] skipping unsupported chunk: ANMF\n",
      "    Last message repeated 7 times\n",
      "[webp @ 0x55f01c7abf40] image data not found\n",
      "Error while decoding stream #0:0: Invalid data found when processing input\n",
      "    Last message repeated 2 times\n",
      "Cannot determine format of input stream 0:0 after EOF\n",
      "Error marking filters as finished\n",
      "Conversion failed!\n",
      "ffmpeg version 4.2.7-0ubuntu0.1 Copyright (c) 2000-2022 the FFmpeg developers\n",
      "  built with gcc 9 (Ubuntu 9.4.0-1ubuntu1~20.04.1)\n",
      "  configuration: --prefix=/usr --extra-version=0ubuntu0.1 --toolchain=hardened --libdir=/usr/lib/x86_64-linux-gnu --incdir=/usr/include/x86_64-linux-gnu --arch=amd64 --enable-gpl --disable-stripping --enable-avresample --disable-filter=resample --enable-avisynth --enable-gnutls --enable-ladspa --enable-libaom --enable-libass --enable-libbluray --enable-libbs2b --enable-libcaca --enable-libcdio --enable-libcodec2 --enable-libflite --enable-libfontconfig --enable-libfreetype --enable-libfribidi --enable-libgme --enable-libgsm --enable-libjack --enable-libmp3lame --enable-libmysofa --enable-libopenjpeg --enable-libopenmpt --enable-libopus --enable-libpulse --enable-librsvg --enable-librubberband --enable-libshine --enable-libsnappy --enable-libsoxr --enable-libspeex --enable-libssh --enable-libtheora --enable-libtwolame --enable-libvidstab --enable-libvorbis --enable-libvpx --enable-libwavpack --enable-libwebp --enable-libx265 --enable-libxml2 --enable-libxvid --enable-libzmq --enable-libzvbi --enable-lv2 --enable-omx --enable-openal --enable-opencl --enable-opengl --enable-sdl2 --enable-libdc1394 --enable-libdrm --enable-libiec61883 --enable-nvenc --enable-chromaprint --enable-frei0r --enable-libx264 --enable-shared\n",
      "  libavutil      56. 31.100 / 56. 31.100\n",
      "  libavcodec     58. 54.100 / 58. 54.100\n",
      "  libavformat    58. 29.100 / 58. 29.100\n",
      "  libavdevice    58.  8.100 / 58.  8.100\n",
      "  libavfilter     7. 57.100 /  7. 57.100\n",
      "  libavresample   4.  0.  0 /  4.  0.  0\n",
      "  libswscale      5.  5.100 /  5.  5.100\n",
      "  libswresample   3.  5.100 /  3.  5.100\n",
      "  libpostproc    55.  5.100 / 55.  5.100\n",
      "[webp @ 0x56417b6e68c0] skipping unsupported chunk: ANIM\n",
      "[webp @ 0x56417b6e68c0] skipping unsupported chunk: ANMF\n",
      "    Last message repeated 11 times\n",
      "[webp @ 0x56417b6e68c0] image data not found\n",
      "[webp_pipe @ 0x56417b6e4dc0] Stream #0: not enough frames to estimate rate; consider increasing probesize\n",
      "[webp_pipe @ 0x56417b6e4dc0] decoding for stream 0 failed\n",
      "[webp_pipe @ 0x56417b6e4dc0] Could not find codec parameters for stream 0 (Video: webp, none): unspecified size\n",
      "Consider increasing the value for the 'analyzeduration' and 'probesize' options\n",
      "[webp @ 0x56417b6e8240] skipping unsupported chunk: ANIM\n",
      "[webp @ 0x56417b6e8240] skipping unsupported chunk: ANMF\n",
      "    Last message repeated 11 times\n",
      "[webp @ 0x56417b6e8240] image data not found\n",
      "[concat @ 0x56417b6da780] decoding for stream 0 failed\n",
      "[concat @ 0x56417b6da780] Could not find codec parameters for stream 0 (Video: webp, none): unspecified size\n",
      "Consider increasing the value for the 'analyzeduration' and 'probesize' options\n",
      "Input #0, concat, from '/home/hongyuan/obj_motion/Trans4Motion.github.io/static/webps/list_1.txt':\n",
      "  Duration: N/A, start: 0.000000, bitrate: N/A\n",
      "    Stream #0:0: Video: webp, none, 25 tbr, 25 tbn, 25 tbc\n",
      "Stream mapping:\n",
      "  Stream #0:0 -> #0:0 (webp (native) -> h264 (libx264))\n",
      "Press [q] to stop, [?] for help\n",
      "[webp @ 0x56417b6f7c40] skipping unsupported chunk: ANIM\n",
      "[webp @ 0x56417b6f7c40] skipping unsupported chunk: ANMF\n",
      "    Last message repeated 11 times\n",
      "[webp @ 0x56417b6f7c40] image data not found\n",
      "[webp @ 0x56417b71fbc0] skipping unsupported chunk: ANIM\n",
      "[webp @ 0x56417b71fbc0] skipping unsupported chunk: ANMF\n",
      "    Last message repeated 11 times\n",
      "[webp @ 0x56417b71fbc0] image data not found\n",
      "[webp_pipe @ 0x56417b6e4dc0] Stream #0: not enough frames to estimate rate; consider increasing probesize\n",
      "[webp_pipe @ 0x56417b6e4dc0] decoding for stream 0 failed\n",
      "[webp_pipe @ 0x56417b6e4dc0] Could not find codec parameters for stream 0 (Video: webp, none): unspecified size\n",
      "Consider increasing the value for the 'analyzeduration' and 'probesize' options\n",
      "[concat @ 0x56417b6da780] DTS -230584300921369 < 0 out of order\n",
      "DTS -230584300921369, next:40000 st:0 invalid dropping\n",
      "PTS -230584300921369, next:40000 invalid dropping st:0\n",
      "[webp @ 0x56417b6f8740] skipping unsupported chunk: ANIM\n",
      "[webp @ 0x56417b6f8740] skipping unsupported chunk: ANMF\n",
      "    Last message repeated 11 times\n",
      "[webp @ 0x56417b6f8740] image data not found\n",
      "[webp @ 0x56417b722740] skipping unsupported chunk: ANIM\n",
      "[webp @ 0x56417b722740] skipping unsupported chunk: ANMF\n",
      "    Last message repeated 11 times\n",
      "[webp @ 0x56417b722740] image data not found\n",
      "[webp_pipe @ 0x56417b6e6300] Stream #0: not enough frames to estimate rate; consider increasing probesize\n",
      "[webp_pipe @ 0x56417b6e6300] decoding for stream 0 failed\n",
      "[webp_pipe @ 0x56417b6e6300] Could not find codec parameters for stream 0 (Video: webp, none): unspecified size\n",
      "Consider increasing the value for the 'analyzeduration' and 'probesize' options\n",
      "[webp @ 0x56417b6fdc80] skipping unsupported chunk: ANIM\n",
      "[webp @ 0x56417b6fdc80] skipping unsupported chunk: ANMF\n",
      "    Last message repeated 11 times\n",
      "[webp @ 0x56417b6fdc80] image data not found\n",
      "[webp @ 0x56417b6e6300] skipping unsupported chunk: ANIM\n",
      "[webp @ 0x56417b6e6300] skipping unsupported chunk: ANMF\n",
      "    Last message repeated 11 times\n",
      "[webp @ 0x56417b6e6300] image data not found\n",
      "[webp_pipe @ 0x56417b720980] Stream #0: not enough frames to estimate rate; consider increasing probesize\n",
      "[webp_pipe @ 0x56417b720980] decoding for stream 0 failed\n",
      "[webp_pipe @ 0x56417b720980] Could not find codec parameters for stream 0 (Video: webp, none): unspecified size\n",
      "Consider increasing the value for the 'analyzeduration' and 'probesize' options\n",
      "DTS -230584300921369, next:40000 st:0 invalid dropping\n",
      "PTS -230584300921369, next:40000 invalid dropping st:0\n",
      "Error while decoding stream #0:0: Invalid data found when processing input\n",
      "[webp @ 0x56417b6fff40] skipping unsupported chunk: ANIM\n",
      "[webp @ 0x56417b6fff40] skipping unsupported chunk: ANMF\n",
      "    Last message repeated 9 times\n",
      "Error while decoding stream #0:0: Invalid data found when processing input\n",
      "    Last message repeated 1 times\n",
      "[webp @ 0x56417b6fff40] skipping unsupported chunk: ANMF\n",
      "    Last message repeated 1 times\n",
      "[webp @ 0x56417b6fff40] image data not found\n",
      "Error while decoding stream #0:0: Invalid data found when processing input\n",
      "Cannot determine format of input stream 0:0 after EOF\n",
      "Error marking filters as finished\n",
      "Conversion failed!\n"
     ]
    }
   ],
   "source": [
    "import os\n",
    "import subprocess\n",
    "\n",
    "# WebP 动图目录\n",
    "webp_dir = \"/home/hongyuan/obj_motion/Trans4Motion.github.io/static/webps\"\n",
    "\n",
    "# 输出视频目录\n",
    "output_dir = \"/home/hongyuan/obj_motion/Trans4Motion.github.io/static/videos\"\n",
    "os.makedirs(output_dir, exist_ok=True)\n",
    "\n",
    "# 获取所有 webp 文件并按名字自然排序\n",
    "webp_files = [f for f in os.listdir(webp_dir) if f.endswith(\".webp\")]\n",
    "# 每 4 个文件生成一个视频\n",
    "chunk_size = 4\n",
    "for i in range(0, len(webp_files), chunk_size):\n",
    "    chunk = webp_files[i:i+chunk_size]\n",
    "    # 创建一个临时 txt 文件，ffmpeg 读取顺序\n",
    "    list_file = os.path.join(webp_dir, f\"list_{i//chunk_size}.txt\")\n",
    "    with open(list_file, \"w\") as f:\n",
    "        for webp in chunk:\n",
    "            f.write(f\"file '{os.path.join(webp_dir, webp)}'\\n\")\n",
    "\n",
    "    output_video = os.path.join(output_dir, f\"video_{i//chunk_size + 1}.mp4\")\n",
    "    \n",
    "    # 调用 ffmpeg 合并 webp 成 mp4\n",
    "    cmd = [\n",
    "        \"ffmpeg\",\n",
    "        \"-y\",  # 覆盖同名文件\n",
    "        \"-f\", \"concat\",\n",
    "        \"-safe\", \"0\",\n",
    "        \"-i\", list_file,\n",
    "        \"-c:v\", \"libx264\",\n",
    "        \"-pix_fmt\", \"yuv420p\",\n",
    "        output_video\n",
    "    ]\n",
    "    subprocess.run(cmd)\n",
    "    print(f\"生成视频: {output_video}\")\n"
   ]
  },
  {
   "cell_type": "code",
   "execution_count": null,
   "id": "47f933bf",
   "metadata": {},
   "outputs": [
    {
     "ename": "SyntaxError",
     "evalue": "invalid syntax (1792314964.py, line 4)",
     "output_type": "error",
     "traceback": [
      "  \u001b[36mCell\u001b[39m\u001b[36m \u001b[39m\u001b[32mIn[4]\u001b[39m\u001b[32m, line 4\u001b[39m\n\u001b[31m    \u001b[39m\u001b[31mmkdir -p \"$OUTPUT_DIR\"\u001b[39m\n             ^\n\u001b[31mSyntaxError\u001b[39m\u001b[31m:\u001b[39m invalid syntax\n"
     ]
    }
   ],
   "source": []
  },
  {
   "cell_type": "code",
   "execution_count": 5,
   "id": "036cbe39",
   "metadata": {},
   "outputs": [
    {
     "ename": "ModuleNotFoundError",
     "evalue": "No module named 'moviepy'",
     "output_type": "error",
     "traceback": [
      "\u001b[31m---------------------------------------------------------------------------\u001b[39m",
      "\u001b[31mModuleNotFoundError\u001b[39m                       Traceback (most recent call last)",
      "\u001b[36mCell\u001b[39m\u001b[36m \u001b[39m\u001b[32mIn[5]\u001b[39m\u001b[32m, line 2\u001b[39m\n\u001b[32m      1\u001b[39m \u001b[38;5;28;01mimport\u001b[39;00m\u001b[38;5;250m \u001b[39m\u001b[34;01mos\u001b[39;00m\n\u001b[32m----> \u001b[39m\u001b[32m2\u001b[39m \u001b[38;5;28;01mfrom\u001b[39;00m\u001b[38;5;250m \u001b[39m\u001b[34;01mmoviepy\u001b[39;00m\u001b[34;01m.\u001b[39;00m\u001b[34;01meditor\u001b[39;00m\u001b[38;5;250m \u001b[39m\u001b[38;5;28;01mimport\u001b[39;00m VideoFileClip, concatenate_videoclips\n\u001b[32m      4\u001b[39m webp_dir = \u001b[33m\"\u001b[39m\u001b[33m/home/hongyuan/obj_motion/Trans4Motion.github.io/static/webps\u001b[39m\u001b[33m\"\u001b[39m\n\u001b[32m      5\u001b[39m output_dir = \u001b[33m\"\u001b[39m\u001b[33m/home/hongyuan/obj_motion/Trans4Motion.github.io/static/videos\u001b[39m\u001b[33m\"\u001b[39m\n",
      "\u001b[31mModuleNotFoundError\u001b[39m: No module named 'moviepy'"
     ]
    }
   ],
   "source": [
    "import os\n",
    "from moviepy.editor import VideoFileClip, concatenate_videoclips\n",
    "\n",
    "webp_dir = \"/home/hongyuan/obj_motion/Trans4Motion.github.io/static/webps\"\n",
    "output_dir = \"/home/hongyuan/obj_motion/Trans4Motion.github.io/static/videos\"\n",
    "os.makedirs(output_dir, exist_ok=True)\n",
    "\n",
    "# 获取 webp 文件并按名字排序\n",
    "webp_files = [f for f in os.listdir(webp_dir) if f.endswith(\".webp\")]\n",
    "\n",
    "# 每 4 个生成一个视频\n",
    "chunk_size = 4\n",
    "for i in range(0, len(webp_files), chunk_size):\n",
    "    chunk = webp_files[i:i+chunk_size]\n",
    "    clips = []\n",
    "    \n",
    "    for webp_file in chunk:\n",
    "        path = os.path.join(webp_dir, webp_file)\n",
    "        clip = VideoFileClip(path)  # moviepy 自动处理 WebP 动画\n",
    "        clips.append(clip)\n",
    "    \n",
    "    final_clip = concatenate_videoclips(clips, method=\"compose\")\n",
    "    output_path = os.path.join(output_dir, f\"video_{i//chunk_size + 1}.mp4\")\n",
    "    final_clip.write_videofile(output_path, codec=\"libx264\", fps=25)\n",
    "    final_clip.close()\n",
    "    \n",
    "    # 关闭每个子 clip\n",
    "    for c in clips:\n",
    "        c.close()\n",
    "\n",
    "    print(f\"生成视频: {output_path}\")\n"
   ]
  },
  {
   "cell_type": "code",
   "execution_count": 7,
   "id": "410fd8d8",
   "metadata": {},
   "outputs": [
    {
     "name": "stdout",
     "output_type": "stream",
     "text": [
      "生成视频: /home/hongyuan/obj_motion/Trans4Motion.github.io/static/videos/video_1.mp4\n",
      "生成视频: /home/hongyuan/obj_motion/Trans4Motion.github.io/static/videos/video_2.mp4\n"
     ]
    },
    {
     "name": "stderr",
     "output_type": "stream",
     "text": [
      "ffmpeg version 4.2.7-0ubuntu0.1 Copyright (c) 2000-2022 the FFmpeg developers\n",
      "  built with gcc 9 (Ubuntu 9.4.0-1ubuntu1~20.04.1)\n",
      "  configuration: --prefix=/usr --extra-version=0ubuntu0.1 --toolchain=hardened --libdir=/usr/lib/x86_64-linux-gnu --incdir=/usr/include/x86_64-linux-gnu --arch=amd64 --enable-gpl --disable-stripping --enable-avresample --disable-filter=resample --enable-avisynth --enable-gnutls --enable-ladspa --enable-libaom --enable-libass --enable-libbluray --enable-libbs2b --enable-libcaca --enable-libcdio --enable-libcodec2 --enable-libflite --enable-libfontconfig --enable-libfreetype --enable-libfribidi --enable-libgme --enable-libgsm --enable-libjack --enable-libmp3lame --enable-libmysofa --enable-libopenjpeg --enable-libopenmpt --enable-libopus --enable-libpulse --enable-librsvg --enable-librubberband --enable-libshine --enable-libsnappy --enable-libsoxr --enable-libspeex --enable-libssh --enable-libtheora --enable-libtwolame --enable-libvidstab --enable-libvorbis --enable-libvpx --enable-libwavpack --enable-libwebp --enable-libx265 --enable-libxml2 --enable-libxvid --enable-libzmq --enable-libzvbi --enable-lv2 --enable-omx --enable-openal --enable-opencl --enable-opengl --enable-sdl2 --enable-libdc1394 --enable-libdrm --enable-libiec61883 --enable-nvenc --enable-chromaprint --enable-frei0r --enable-libx264 --enable-shared\n",
      "  libavutil      56. 31.100 / 56. 31.100\n",
      "  libavcodec     58. 54.100 / 58. 54.100\n",
      "  libavformat    58. 29.100 / 58. 29.100\n",
      "  libavdevice    58.  8.100 / 58.  8.100\n",
      "  libavfilter     7. 57.100 /  7. 57.100\n",
      "  libavresample   4.  0.  0 /  4.  0.  0\n",
      "  libswscale      5.  5.100 /  5.  5.100\n",
      "  libswresample   3.  5.100 /  3.  5.100\n",
      "  libpostproc    55.  5.100 / 55.  5.100\n",
      "[webp @ 0x558777f92c40] skipping unsupported chunk: ANIM\n",
      "[webp @ 0x558777f92c40] skipping unsupported chunk: ANMF\n",
      "    Last message repeated 11 times\n",
      "[webp @ 0x558777f92c40] image data not found\n",
      "[webp_pipe @ 0x558777f90c40] Stream #0: not enough frames to estimate rate; consider increasing probesize\n",
      "[webp_pipe @ 0x558777f90c40] decoding for stream 0 failed\n",
      "[webp_pipe @ 0x558777f90c40] Could not find codec parameters for stream 0 (Video: webp, none): unspecified size\n",
      "Consider increasing the value for the 'analyzeduration' and 'probesize' options\n",
      "Input #0, webp_pipe, from '/home/hongyuan/obj_motion/Trans4Motion.github.io/static/webps/0a_combined_3.webp':\n",
      "  Duration: N/A, bitrate: N/A\n",
      "    Stream #0:0: Video: webp, none, 25 tbr, 25 tbn, 25 tbc\n",
      "[webp @ 0x558777f98580] skipping unsupported chunk: ANIM\n",
      "[webp @ 0x558777f98580] skipping unsupported chunk: ANMF\n",
      "    Last message repeated 11 times\n",
      "[webp @ 0x558777f98580] image data not found\n",
      "[webp_pipe @ 0x558777f94380] Stream #0: not enough frames to estimate rate; consider increasing probesize\n",
      "[webp_pipe @ 0x558777f94380] decoding for stream 0 failed\n",
      "[webp_pipe @ 0x558777f94380] Could not find codec parameters for stream 0 (Video: webp, none): unspecified size\n",
      "Consider increasing the value for the 'analyzeduration' and 'probesize' options\n",
      "Input #1, webp_pipe, from '/home/hongyuan/obj_motion/Trans4Motion.github.io/static/webps/0a_combined_4.webp':\n",
      "  Duration: N/A, bitrate: N/A\n",
      "    Stream #1:0: Video: webp, none, 25 tbr, 25 tbn, 25 tbc\n",
      "[webp @ 0x558777fa5ec0] skipping unsupported chunk: ANIM\n",
      "[webp @ 0x558777fa5ec0] skipping unsupported chunk: ANMF\n",
      "    Last message repeated 11 times\n",
      "[webp @ 0x558777fa5ec0] image data not found\n",
      "[webp_pipe @ 0x558777fa2100] Stream #0: not enough frames to estimate rate; consider increasing probesize\n",
      "[webp_pipe @ 0x558777fa2100] decoding for stream 0 failed\n",
      "[webp_pipe @ 0x558777fa2100] Could not find codec parameters for stream 0 (Video: webp, none): unspecified size\n",
      "Consider increasing the value for the 'analyzeduration' and 'probesize' options\n",
      "Input #2, webp_pipe, from '/home/hongyuan/obj_motion/Trans4Motion.github.io/static/webps/0a_combined_6.webp':\n",
      "  Duration: N/A, bitrate: N/A\n",
      "    Stream #2:0: Video: webp, none, 25 tbr, 25 tbn, 25 tbc\n",
      "[webp @ 0x558777fc2a80] skipping unsupported chunk: ANIM\n",
      "[webp @ 0x558777fc2a80] skipping unsupported chunk: ANMF\n",
      "    Last message repeated 11 times\n",
      "[webp @ 0x558777fc2a80] image data not found\n",
      "[webp_pipe @ 0x558777fa9480] Stream #0: not enough frames to estimate rate; consider increasing probesize\n",
      "[webp_pipe @ 0x558777fa9480] decoding for stream 0 failed\n",
      "[webp_pipe @ 0x558777fa9480] Could not find codec parameters for stream 0 (Video: webp, none): unspecified size\n",
      "Consider increasing the value for the 'analyzeduration' and 'probesize' options\n",
      "Input #3, webp_pipe, from '/home/hongyuan/obj_motion/Trans4Motion.github.io/static/webps/0a_combined_0.webp':\n",
      "  Duration: N/A, bitrate: N/A\n",
      "    Stream #3:0: Video: webp, none, 25 tbr, 25 tbn, 25 tbc\n",
      "Stream mapping:\n",
      "  Stream #0:0 (webp) -> concat:in0:v0\n",
      "  Stream #1:0 (webp) -> concat:in1:v0\n",
      "  Stream #2:0 (webp) -> concat:in2:v0\n",
      "  Stream #3:0 (webp) -> concat:in3:v0\n",
      "  concat -> Stream #0:0 (libx264)\n",
      "Press [q] to stop, [?] for help\n",
      "[webp @ 0x558777fca500] skipping unsupported chunk: ANIM\n",
      "[webp @ 0x558777fca500] skipping unsupported chunk: ANMF\n",
      "    Last message repeated 11 times\n",
      "[webp @ 0x558777fca500] image data not found\n",
      "Error while decoding stream #0:0: Invalid data found when processing input\n",
      "Cannot determine format of input stream 0:0 after EOF\n",
      "Error marking filters as finished\n",
      "Conversion failed!\n",
      "ffmpeg version 4.2.7-0ubuntu0.1 Copyright (c) 2000-2022 the FFmpeg developers\n",
      "  built with gcc 9 (Ubuntu 9.4.0-1ubuntu1~20.04.1)\n",
      "  configuration: --prefix=/usr --extra-version=0ubuntu0.1 --toolchain=hardened --libdir=/usr/lib/x86_64-linux-gnu --incdir=/usr/include/x86_64-linux-gnu --arch=amd64 --enable-gpl --disable-stripping --enable-avresample --disable-filter=resample --enable-avisynth --enable-gnutls --enable-ladspa --enable-libaom --enable-libass --enable-libbluray --enable-libbs2b --enable-libcaca --enable-libcdio --enable-libcodec2 --enable-libflite --enable-libfontconfig --enable-libfreetype --enable-libfribidi --enable-libgme --enable-libgsm --enable-libjack --enable-libmp3lame --enable-libmysofa --enable-libopenjpeg --enable-libopenmpt --enable-libopus --enable-libpulse --enable-librsvg --enable-librubberband --enable-libshine --enable-libsnappy --enable-libsoxr --enable-libspeex --enable-libssh --enable-libtheora --enable-libtwolame --enable-libvidstab --enable-libvorbis --enable-libvpx --enable-libwavpack --enable-libwebp --enable-libx265 --enable-libxml2 --enable-libxvid --enable-libzmq --enable-libzvbi --enable-lv2 --enable-omx --enable-openal --enable-opencl --enable-opengl --enable-sdl2 --enable-libdc1394 --enable-libdrm --enable-libiec61883 --enable-nvenc --enable-chromaprint --enable-frei0r --enable-libx264 --enable-shared\n",
      "  libavutil      56. 31.100 / 56. 31.100\n",
      "  libavcodec     58. 54.100 / 58. 54.100\n",
      "  libavformat    58. 29.100 / 58. 29.100\n",
      "  libavdevice    58.  8.100 / 58.  8.100\n",
      "  libavfilter     7. 57.100 /  7. 57.100\n",
      "  libavresample   4.  0.  0 /  4.  0.  0\n",
      "  libswscale      5.  5.100 /  5.  5.100\n",
      "  libswresample   3.  5.100 /  3.  5.100\n",
      "  libpostproc    55.  5.100 / 55.  5.100\n",
      "[webp @ 0x561c044f8c40] skipping unsupported chunk: ANIM\n",
      "[webp @ 0x561c044f8c40] skipping unsupported chunk: ANMF\n",
      "    Last message repeated 11 times\n",
      "[webp @ 0x561c044f8c40] image data not found\n",
      "[webp_pipe @ 0x561c044f6c40] Stream #0: not enough frames to estimate rate; consider increasing probesize\n",
      "[webp_pipe @ 0x561c044f6c40] decoding for stream 0 failed\n",
      "[webp_pipe @ 0x561c044f6c40] Could not find codec parameters for stream 0 (Video: webp, none): unspecified size\n",
      "Consider increasing the value for the 'analyzeduration' and 'probesize' options\n",
      "Input #0, webp_pipe, from '/home/hongyuan/obj_motion/Trans4Motion.github.io/static/webps/0a_combined_2.webp':\n",
      "  Duration: N/A, bitrate: N/A\n",
      "    Stream #0:0: Video: webp, none, 25 tbr, 25 tbn, 25 tbc\n",
      "[webp @ 0x561c044fe580] skipping unsupported chunk: ANIM\n",
      "[webp @ 0x561c044fe580] skipping unsupported chunk: ANMF\n",
      "    Last message repeated 11 times\n",
      "[webp @ 0x561c044fe580] image data not found\n",
      "[webp_pipe @ 0x561c044fa380] Stream #0: not enough frames to estimate rate; consider increasing probesize\n",
      "[webp_pipe @ 0x561c044fa380] decoding for stream 0 failed\n",
      "[webp_pipe @ 0x561c044fa380] Could not find codec parameters for stream 0 (Video: webp, none): unspecified size\n",
      "Consider increasing the value for the 'analyzeduration' and 'probesize' options\n",
      "Input #1, webp_pipe, from '/home/hongyuan/obj_motion/Trans4Motion.github.io/static/webps/0a_combined_7.webp':\n",
      "  Duration: N/A, bitrate: N/A\n",
      "    Stream #1:0: Video: webp, none, 25 tbr, 25 tbn, 25 tbc\n",
      "[webp @ 0x561c0450bec0] skipping unsupported chunk: ANIM\n",
      "[webp @ 0x561c0450bec0] skipping unsupported chunk: ANMF\n",
      "    Last message repeated 11 times\n",
      "[webp @ 0x561c0450bec0] image data not found\n",
      "[webp_pipe @ 0x561c04508100] Stream #0: not enough frames to estimate rate; consider increasing probesize\n",
      "[webp_pipe @ 0x561c04508100] decoding for stream 0 failed\n",
      "[webp_pipe @ 0x561c04508100] Could not find codec parameters for stream 0 (Video: webp, none): unspecified size\n",
      "Consider increasing the value for the 'analyzeduration' and 'probesize' options\n",
      "Input #2, webp_pipe, from '/home/hongyuan/obj_motion/Trans4Motion.github.io/static/webps/0a_combined_5.webp':\n",
      "  Duration: N/A, bitrate: N/A\n",
      "    Stream #2:0: Video: webp, none, 25 tbr, 25 tbn, 25 tbc\n",
      "[webp @ 0x561c04528a80] skipping unsupported chunk: ANIM\n",
      "[webp @ 0x561c04528a80] skipping unsupported chunk: ANMF\n",
      "    Last message repeated 11 times\n",
      "[webp @ 0x561c04528a80] image data not found\n",
      "[webp_pipe @ 0x561c0450f480] Stream #0: not enough frames to estimate rate; consider increasing probesize\n",
      "[webp_pipe @ 0x561c0450f480] decoding for stream 0 failed\n",
      "[webp_pipe @ 0x561c0450f480] Could not find codec parameters for stream 0 (Video: webp, none): unspecified size\n",
      "Consider increasing the value for the 'analyzeduration' and 'probesize' options\n",
      "Input #3, webp_pipe, from '/home/hongyuan/obj_motion/Trans4Motion.github.io/static/webps/0a_combined_1.webp':\n",
      "  Duration: N/A, bitrate: N/A\n",
      "    Stream #3:0: Video: webp, none, 25 tbr, 25 tbn, 25 tbc\n",
      "Stream mapping:\n",
      "  Stream #0:0 (webp) -> concat:in0:v0\n",
      "  Stream #1:0 (webp) -> concat:in1:v0\n",
      "  Stream #2:0 (webp) -> concat:in2:v0\n",
      "  Stream #3:0 (webp) -> concat:in3:v0\n",
      "  concat -> Stream #0:0 (libx264)\n",
      "Press [q] to stop, [?] for help\n",
      "[webp @ 0x561c04530500] skipping unsupported chunk: ANIM\n",
      "[webp @ 0x561c04530500] skipping unsupported chunk: ANMF\n",
      "    Last message repeated 11 times\n",
      "[webp @ 0x561c04530500] image data not found\n",
      "Error while decoding stream #0:0: Invalid data found when processing input\n",
      "Cannot determine format of input stream 0:0 after EOF\n",
      "Error marking filters as finished\n",
      "Conversion failed!\n"
     ]
    }
   ],
   "source": [
    "import os\n",
    "import subprocess\n",
    "\n",
    "webp_dir = \"/home/hongyuan/obj_motion/Trans4Motion.github.io/static/webps\"\n",
    "output_dir = \"/home/hongyuan/obj_motion/Trans4Motion.github.io/static/videos\"\n",
    "os.makedirs(output_dir, exist_ok=True)\n",
    "\n",
    "# 获取所有 webp 文件并自然排序\n",
    "webp_files = [f for f in os.listdir(webp_dir) if f.endswith(\".webp\")]\n",
    "\n",
    "chunk_size = 4\n",
    "\n",
    "for i in range(0, len(webp_files), chunk_size):\n",
    "    chunk = webp_files[i:i+chunk_size]\n",
    "\n",
    "    # 拼接输入参数，直接让 ffmpeg 串联 WebP 动画\n",
    "    # 每个 WebP 动画用 -i 单独输入，后面再 concat filter\n",
    "    input_args = []\n",
    "    for f in chunk:\n",
    "        input_args += [\"-i\", os.path.join(webp_dir, f)]\n",
    "\n",
    "    # 构建 filter_complex concat\n",
    "    filter_inputs = \"\".join([f\"[{j}:v:0]\" for j in range(len(chunk))])\n",
    "    filter_complex = f\"{filter_inputs}concat=n={len(chunk)}:v=1:a=0[outv]\"\n",
    "\n",
    "    output_path = os.path.join(output_dir, f\"video_{i//chunk_size + 1}.mp4\")\n",
    "\n",
    "    cmd = [\"ffmpeg\", \"-y\"] + input_args + [\n",
    "        \"-filter_complex\", filter_complex,\n",
    "        \"-map\", \"[outv]\",\n",
    "        \"-c:v\", \"libx264\",\n",
    "        \"-pix_fmt\", \"yuv420p\",\n",
    "        output_path\n",
    "    ]\n",
    "\n",
    "    subprocess.run(cmd)\n",
    "    print(f\"生成视频: {output_path}\")\n"
   ]
  },
  {
   "cell_type": "code",
   "execution_count": 16,
   "id": "2a3f7064",
   "metadata": {},
   "outputs": [
    {
     "name": "stderr",
     "output_type": "stream",
     "text": [
      "ffmpeg version 4.2.7-0ubuntu0.1 Copyright (c) 2000-2022 the FFmpeg developers\n",
      "  built with gcc 9 (Ubuntu 9.4.0-1ubuntu1~20.04.1)\n",
      "  configuration: --prefix=/usr --extra-version=0ubuntu0.1 --toolchain=hardened --libdir=/usr/lib/x86_64-linux-gnu --incdir=/usr/include/x86_64-linux-gnu --arch=amd64 --enable-gpl --disable-stripping --enable-avresample --disable-filter=resample --enable-avisynth --enable-gnutls --enable-ladspa --enable-libaom --enable-libass --enable-libbluray --enable-libbs2b --enable-libcaca --enable-libcdio --enable-libcodec2 --enable-libflite --enable-libfontconfig --enable-libfreetype --enable-libfribidi --enable-libgme --enable-libgsm --enable-libjack --enable-libmp3lame --enable-libmysofa --enable-libopenjpeg --enable-libopenmpt --enable-libopus --enable-libpulse --enable-librsvg --enable-librubberband --enable-libshine --enable-libsnappy --enable-libsoxr --enable-libspeex --enable-libssh --enable-libtheora --enable-libtwolame --enable-libvidstab --enable-libvorbis --enable-libvpx --enable-libwavpack --enable-libwebp --enable-libx265 --enable-libxml2 --enable-libxvid --enable-libzmq --enable-libzvbi --enable-lv2 --enable-omx --enable-openal --enable-opencl --enable-opengl --enable-sdl2 --enable-libdc1394 --enable-libdrm --enable-libiec61883 --enable-nvenc --enable-chromaprint --enable-frei0r --enable-libx264 --enable-shared\n",
      "  libavutil      56. 31.100 / 56. 31.100\n",
      "  libavcodec     58. 54.100 / 58. 54.100\n",
      "  libavformat    58. 29.100 / 58. 29.100\n",
      "  libavdevice    58.  8.100 / 58.  8.100\n",
      "  libavfilter     7. 57.100 /  7. 57.100\n",
      "  libavresample   4.  0.  0 /  4.  0.  0\n",
      "  libswscale      5.  5.100 /  5.  5.100\n",
      "  libswresample   3.  5.100 /  3.  5.100\n",
      "  libpostproc    55.  5.100 / 55.  5.100\n",
      "[gif @ 0x56333ae89700] Stream #0: not enough frames to estimate rate; consider increasing probesize\n",
      "Input #0, gif, from '/home/hongyuan/obj_motion/Trans4Motion.github.io/static/webps/grouped_combined_1.gif':\n",
      "  Duration: 00:00:01.20, start: 0.000000, bitrate: 627435 kb/s\n",
      "    Stream #0:0: Video: gif, bgra, 9600x9984, 100 tbr, 100 tbn, 100 tbc\n",
      "Stream mapping:\n",
      "  Stream #0:0 -> #0:0 (gif (native) -> h264 (libx264))\n",
      "Press [q] to stop, [?] for help\n",
      "[libx264 @ 0x56333ae8ef80] frame MB size (600x624) > level limit (139264)\n",
      "[libx264 @ 0x56333ae8ef80] DPB size (4 frames, 1497600 mbs) > level limit (1 frames, 696320 mbs)\n",
      "[libx264 @ 0x56333ae8ef80] using cpu capabilities: MMX2 SSE2Fast SSSE3 SSE4.2 AVX FMA3 BMI2 AVX2 AVX512\n",
      "[libx264 @ 0x56333ae8ef80] profile High, level 6.2\n",
      "[libx264 @ 0x56333ae8ef80] 264 - core 155 r2917 0a84d98 - H.264/MPEG-4 AVC codec - Copyleft 2003-2018 - http://www.videolan.org/x264.html - options: cabac=1 ref=3 deblock=1:0:0 analyse=0x3:0x113 me=hex subme=7 psy=1 psy_rd=1.00:0.00 mixed_ref=1 me_range=16 chroma_me=1 trellis=1 8x8dct=1 cqm=0 deadzone=21,11 fast_pskip=1 chroma_qp_offset=-2 threads=128 lookahead_threads=16 sliced_threads=0 nr=0 decimate=1 interlaced=0 bluray_compat=0 constrained_intra=0 bframes=3 b_pyramid=2 b_adapt=1 b_bias=0 direct=1 weightb=1 open_gop=0 weightp=2 keyint=250 keyint_min=24 scenecut=40 intra_refresh=0 rc_lookahead=40 rc=crf mbtree=1 crf=23.0 qcomp=0.60 qpmin=0 qpmax=69 qpstep=4 ip_ratio=1.40 aq=1:1.00\n",
      "Output #0, mp4, to '/home/hongyuan/obj_motion/Trans4Motion.github.io/static/webps/video_3.mp4':\n",
      "  Metadata:\n",
      "    encoder         : Lavf58.29.100\n",
      "    Stream #0:0: Video: h264 (libx264) (avc1 / 0x31637661), yuv420p, 9600x9984, q=-1--1, 24 fps, 12288 tbn, 24 tbc\n",
      "    Metadata:\n",
      "      encoder         : Lavc58.54.100 libx264\n",
      "    Side data:\n",
      "      cpb: bitrate max/min/avg: 0/0/0 buffer size: 0 vbv_delay: -1\n",
      "frame=   85 fps=0.5 q=-1.0 Lsize=   15647kB time=00:00:03.41 bitrate=37514.5kbits/s dup=73 drop=0 speed=0.0209x    \n",
      "video:15645kB audio:0kB subtitle:0kB other streams:0kB global headers:0kB muxing overhead: 0.012865%\n",
      "[libx264 @ 0x56333ae8ef80] frame I:1     Avg QP:19.59  size:4627547\n",
      "[libx264 @ 0x56333ae8ef80] frame P:21    Avg QP:21.84  size:510271\n",
      "[libx264 @ 0x56333ae8ef80] frame B:63    Avg QP:15.59  size: 10734\n",
      "[libx264 @ 0x56333ae8ef80] consecutive B-frames:  1.2%  0.0%  0.0% 98.8%\n",
      "[libx264 @ 0x56333ae8ef80] mb I  I16..4:  7.2% 68.0% 24.8%\n",
      "[libx264 @ 0x56333ae8ef80] mb P  I16..4:  0.1%  1.2%  0.7%  P16..4:  3.2%  0.9%  1.1%  0.0%  0.0%    skip:92.7%\n",
      "[libx264 @ 0x56333ae8ef80] mb B  I16..4:  0.1%  0.1%  0.0%  B16..8:  2.2%  0.0%  0.0%  direct: 1.0%  skip:96.5%  L0:50.5% L1:49.4% BI: 0.1%\n",
      "[libx264 @ 0x56333ae8ef80] 8x8 transform intra:62.6% inter:27.4%\n",
      "[libx264 @ 0x56333ae8ef80] coded y,uvDC,uvAC intra: 22.7% 13.2% 11.1% inter: 0.5% 1.1% 0.2%\n",
      "[libx264 @ 0x56333ae8ef80] i16 v,h,dc,p: 61% 30%  8%  1%\n",
      "[libx264 @ 0x56333ae8ef80] i8 v,h,dc,ddl,ddr,vr,hd,vl,hu: 58%  4% 34%  1%  1%  1%  1%  1%  1%\n",
      "[libx264 @ 0x56333ae8ef80] i4 v,h,dc,ddl,ddr,vr,hd,vl,hu: 28% 16% 18%  8%  4%  3% 11%  8%  3%\n",
      "[libx264 @ 0x56333ae8ef80] i8c dc,h,v,p: 90%  4%  4%  2%\n",
      "[libx264 @ 0x56333ae8ef80] Weighted P-Frames: Y:9.5% UV:9.5%\n",
      "[libx264 @ 0x56333ae8ef80] ref P L0: 52.7% 22.6% 20.3%  3.9%  0.4%\n",
      "[libx264 @ 0x56333ae8ef80] ref B L0: 72.9% 26.3%  0.8%\n",
      "[libx264 @ 0x56333ae8ef80] ref B L1: 97.7%  2.3%\n",
      "[libx264 @ 0x56333ae8ef80] kb/s:36185.13\n"
     ]
    },
    {
     "name": "stdout",
     "output_type": "stream",
     "text": [
      "生成视频: /home/hongyuan/obj_motion/Trans4Motion.github.io/static/webps/video_3.mp4\n"
     ]
    },
    {
     "name": "stderr",
     "output_type": "stream",
     "text": [
      "ffmpeg version 4.2.7-0ubuntu0.1 Copyright (c) 2000-2022 the FFmpeg developers\n",
      "  built with gcc 9 (Ubuntu 9.4.0-1ubuntu1~20.04.1)\n",
      "  configuration: --prefix=/usr --extra-version=0ubuntu0.1 --toolchain=hardened --libdir=/usr/lib/x86_64-linux-gnu --incdir=/usr/include/x86_64-linux-gnu --arch=amd64 --enable-gpl --disable-stripping --enable-avresample --disable-filter=resample --enable-avisynth --enable-gnutls --enable-ladspa --enable-libaom --enable-libass --enable-libbluray --enable-libbs2b --enable-libcaca --enable-libcdio --enable-libcodec2 --enable-libflite --enable-libfontconfig --enable-libfreetype --enable-libfribidi --enable-libgme --enable-libgsm --enable-libjack --enable-libmp3lame --enable-libmysofa --enable-libopenjpeg --enable-libopenmpt --enable-libopus --enable-libpulse --enable-librsvg --enable-librubberband --enable-libshine --enable-libsnappy --enable-libsoxr --enable-libspeex --enable-libssh --enable-libtheora --enable-libtwolame --enable-libvidstab --enable-libvorbis --enable-libvpx --enable-libwavpack --enable-libwebp --enable-libx265 --enable-libxml2 --enable-libxvid --enable-libzmq --enable-libzvbi --enable-lv2 --enable-omx --enable-openal --enable-opencl --enable-opengl --enable-sdl2 --enable-libdc1394 --enable-libdrm --enable-libiec61883 --enable-nvenc --enable-chromaprint --enable-frei0r --enable-libx264 --enable-shared\n",
      "  libavutil      56. 31.100 / 56. 31.100\n",
      "  libavcodec     58. 54.100 / 58. 54.100\n",
      "  libavformat    58. 29.100 / 58. 29.100\n",
      "  libavdevice    58.  8.100 / 58.  8.100\n",
      "  libavfilter     7. 57.100 /  7. 57.100\n",
      "  libavresample   4.  0.  0 /  4.  0.  0\n",
      "  libswscale      5.  5.100 /  5.  5.100\n",
      "  libswresample   3.  5.100 /  3.  5.100\n",
      "  libpostproc    55.  5.100 / 55.  5.100\n",
      "[gif @ 0x5571ba70c700] Stream #0: not enough frames to estimate rate; consider increasing probesize\n",
      "Input #0, gif, from '/home/hongyuan/obj_motion/Trans4Motion.github.io/static/webps/grouped_combined_0.gif':\n",
      "  Duration: 00:00:01.20, start: 0.000000, bitrate: 636053 kb/s\n",
      "    Stream #0:0: Video: gif, bgra, 9600x9984, 100 tbr, 100 tbn, 100 tbc\n",
      "Stream mapping:\n",
      "  Stream #0:0 -> #0:0 (gif (native) -> h264 (libx264))\n",
      "Press [q] to stop, [?] for help\n",
      "[libx264 @ 0x5571ba711f80] frame MB size (600x624) > level limit (139264)\n",
      "[libx264 @ 0x5571ba711f80] DPB size (4 frames, 1497600 mbs) > level limit (1 frames, 696320 mbs)\n",
      "[libx264 @ 0x5571ba711f80] using cpu capabilities: MMX2 SSE2Fast SSSE3 SSE4.2 AVX FMA3 BMI2 AVX2 AVX512\n",
      "[libx264 @ 0x5571ba711f80] profile High, level 6.2\n",
      "[libx264 @ 0x5571ba711f80] 264 - core 155 r2917 0a84d98 - H.264/MPEG-4 AVC codec - Copyleft 2003-2018 - http://www.videolan.org/x264.html - options: cabac=1 ref=3 deblock=1:0:0 analyse=0x3:0x113 me=hex subme=7 psy=1 psy_rd=1.00:0.00 mixed_ref=1 me_range=16 chroma_me=1 trellis=1 8x8dct=1 cqm=0 deadzone=21,11 fast_pskip=1 chroma_qp_offset=-2 threads=128 lookahead_threads=16 sliced_threads=0 nr=0 decimate=1 interlaced=0 bluray_compat=0 constrained_intra=0 bframes=3 b_pyramid=2 b_adapt=1 b_bias=0 direct=1 weightb=1 open_gop=0 weightp=2 keyint=250 keyint_min=24 scenecut=40 intra_refresh=0 rc_lookahead=40 rc=crf mbtree=1 crf=23.0 qcomp=0.60 qpmin=0 qpmax=69 qpstep=4 ip_ratio=1.40 aq=1:1.00\n",
      "Output #0, mp4, to '/home/hongyuan/obj_motion/Trans4Motion.github.io/static/webps/video_4.mp4':\n",
      "  Metadata:\n",
      "    encoder         : Lavf58.29.100\n",
      "    Stream #0:0: Video: h264 (libx264) (avc1 / 0x31637661), yuv420p, 9600x9984, q=-1--1, 24 fps, 12288 tbn, 24 tbc\n",
      "    Metadata:\n",
      "      encoder         : Lavc58.54.100 libx264\n",
      "    Side data:\n",
      "      cpb: bitrate max/min/avg: 0/0/0 buffer size: 0 vbv_delay: -1\n",
      "frame=   85 fps=3.1 q=-1.0 Lsize=   14727kB time=00:00:03.41 bitrate=35310.0kbits/s dup=73 drop=0 speed=0.126x    \n",
      "video:14725kB audio:0kB subtitle:0kB other streams:0kB global headers:0kB muxing overhead: 0.013270%\n",
      "[libx264 @ 0x5571ba711f80] frame I:1     Avg QP:19.28  size:4624938\n",
      "[libx264 @ 0x5571ba711f80] frame P:21    Avg QP:20.91  size:456878\n",
      "[libx264 @ 0x5571ba711f80] frame B:63    Avg QP:16.12  size: 13629\n",
      "[libx264 @ 0x5571ba711f80] consecutive B-frames:  1.2%  0.0%  0.0% 98.8%\n",
      "[libx264 @ 0x5571ba711f80] mb I  I16..4:  8.5% 66.7% 24.9%\n",
      "[libx264 @ 0x5571ba711f80] mb P  I16..4:  0.8%  4.5%  0.4%  P16..4:  5.3%  1.0%  1.2%  0.0%  0.0%    skip:86.8%\n",
      "[libx264 @ 0x5571ba711f80] mb B  I16..4:  0.1%  0.1%  0.0%  B16..8:  2.4%  0.0%  0.0%  direct: 3.9%  skip:93.5%  L0:48.6% L1:51.3% BI: 0.1%\n",
      "[libx264 @ 0x5571ba711f80] 8x8 transform intra:71.0% inter:29.8%\n",
      "[libx264 @ 0x5571ba711f80] coded y,uvDC,uvAC intra: 12.6% 6.3% 4.9% inter: 0.5% 3.4% 0.3%\n",
      "[libx264 @ 0x5571ba711f80] i16 v,h,dc,p: 79% 16%  4%  0%\n",
      "[libx264 @ 0x5571ba711f80] i8 v,h,dc,ddl,ddr,vr,hd,vl,hu: 63%  4% 32%  0%  0%  0%  0%  0%  0%\n",
      "[libx264 @ 0x5571ba711f80] i4 v,h,dc,ddl,ddr,vr,hd,vl,hu: 31% 15% 17%  8%  3%  3% 11%  8%  3%\n",
      "[libx264 @ 0x5571ba711f80] i8c dc,h,v,p: 93%  3%  3%  1%\n",
      "[libx264 @ 0x5571ba711f80] Weighted P-Frames: Y:23.8% UV:19.0%\n",
      "[libx264 @ 0x5571ba711f80] ref P L0: 37.1% 32.8% 25.7%  2.3%  2.1%\n",
      "[libx264 @ 0x5571ba711f80] ref B L0: 72.2% 26.4%  1.4%\n",
      "[libx264 @ 0x5571ba711f80] ref B L1: 96.6%  3.4%\n",
      "[libx264 @ 0x5571ba711f80] kb/s:34058.51\n"
     ]
    },
    {
     "name": "stdout",
     "output_type": "stream",
     "text": [
      "生成视频: /home/hongyuan/obj_motion/Trans4Motion.github.io/static/webps/video_4.mp4\n"
     ]
    }
   ],
   "source": [
    "import os\n",
    "import subprocess\n",
    "\n",
    "gif_dir = \"/home/hongyuan/obj_motion/Trans4Motion.github.io/static/webps\"\n",
    "output_dir = \"/home/hongyuan/obj_motion/Trans4Motion.github.io/static/webps\"\n",
    "os.makedirs(output_dir, exist_ok=True)\n",
    "\n",
    "# 中文注释：将每个 gif 单独转为一个 mp4 视频\n",
    "gif_files = [f for f in os.listdir(gif_dir) if f.endswith(\".gif\")]\n",
    "\n",
    "for idx, gif_file in enumerate(gif_files):\n",
    "    input_path = os.path.join(gif_dir, gif_file)\n",
    "    output_path = os.path.join(output_dir, f\"video_{idx + 3}.mp4\")\n",
    "    \n",
    "    # 中文注释：使用 ffmpeg 将 gif 转为 mp4，设置帧率为24\n",
    "    cmd = [\n",
    "        \"ffmpeg\", \"-y\",\n",
    "        \"-i\", input_path,\n",
    "        \"-vf\", \"setpts=3*PTS\",  # 时长拉长 3 倍\n",
    "        \"-r\", \"24\",             # 目标帧率 24\n",
    "        \"-c:v\", \"libx264\",\n",
    "        \"-pix_fmt\", \"yuv420p\",\n",
    "        output_path\n",
    "    ]\n",
    "    subprocess.run(cmd)\n",
    "    print(f\"生成视频: {output_path}\")\n"
   ]
  },
  {
   "cell_type": "code",
   "execution_count": null,
   "id": "a4170ccf",
   "metadata": {},
   "outputs": [],
   "source": [
    "import os\n",
    "import subprocess\n",
    "from multiprocessing import Pool\n",
    "\n",
    "gif_dir = \"/home/hongyuan/obj_motion/Trans4Motion.github.io/static/webps\"\n",
    "output_dir = \"/home/hongyuan/obj_motion/Trans4Motion.github.io/static/webps\"\n",
    "os.makedirs(output_dir, exist_ok=True)\n",
    "\n",
    "# 中文注释：将每个 gif 单独转为一个 mp4 视频，使用多进程加速\n",
    "gif_files = [f for f in os.listdir(gif_dir) if f.endswith(\".gif\")]\n",
    "\n",
    "def convert_gif_to_mp4(args):\n",
    "    idx, gif_file = args\n",
    "    input_path = os.path.join(gif_dir, gif_file)\n",
    "    output_path = os.path.join(output_dir, f\"video_{idx + 3}.mp4\")\n",
    "    # 中文注释：使用 ffmpeg 将 gif 转为 mp4，设置帧率为24，时长拉长3倍\n",
    "    cmd = [\n",
    "        \"ffmpeg\", \"-y\",\n",
    "        \"-i\", input_path,\n",
    "        \"-vf\", \"setpts=3*PTS\",  # 时长拉长 3 倍\n",
    "        \"-r\", \"24\",             # 目标帧率 24\n",
    "        \"-c:v\", \"libx264\",\n",
    "        \"-pix_fmt\", \"yuv420p\",\n",
    "        output_path\n",
    "    ]\n",
    "    subprocess.run(cmd)\n",
    "    print(f\"生成视频: {output_path}\")\n",
    "\n",
    "if __name__ == \"__main__\":\n",
    "    # 中文注释：使用进程池并发处理所有 gif 文件\n",
    "    with Pool() as pool:\n",
    "        pool.map(convert_gif_to_mp4, list(enumerate(gif_files)))\n"
   ]
  },
  {
   "cell_type": "code",
   "execution_count": null,
   "id": "0ae5f69f",
   "metadata": {},
   "outputs": [],
   "source": []
  }
 ],
 "metadata": {
  "kernelspec": {
   "display_name": "UniRig",
   "language": "python",
   "name": "python3"
  },
  "language_info": {
   "codemirror_mode": {
    "name": "ipython",
    "version": 3
   },
   "file_extension": ".py",
   "mimetype": "text/x-python",
   "name": "python",
   "nbconvert_exporter": "python",
   "pygments_lexer": "ipython3",
   "version": "3.11.11"
  }
 },
 "nbformat": 4,
 "nbformat_minor": 5
}
